<svg xmlns="http://www.w3.org/2000/svg" width="84" height="84" viewBox="0 0 84 84">
    <g fill="none" fill-rule="evenodd">
        <g fill="#155394" fill-rule="nonzero">
            <g>
                <g>
                    <g>
                        <g>
                            <path d="M82.6 48.815h-4.294L75.6 9.312c-.05-.74-.662-1.313-1.4-1.312h-8.4c-.738-.001-1.35.572-1.4 1.312l-2.706 39.503H58.8V40.37c0-.776-.627-1.407-1.4-1.407-.318 0-.627.109-.875.309L44.8 48.7v-8.33c0-.777-.626-1.408-1.4-1.408-.318 0-.627.109-.875.309L30.8 48.7v-8.33c0-.777-.626-1.408-1.4-1.408-.318 0-.627.109-.874.309L16.8 48.7v-8.33c0-.777-.628-1.408-1.4-1.408-.255 0-.504.07-.722.201l-14 8.445C.258 47.863 0 48.32 0 48.815v33.778C0 83.37.627 84 1.4 84h81.2c.773 0 1.4-.63 1.4-1.407v-32.37c0-.778-.627-1.408-1.4-1.408zm-15.493-38h5.785l2.608 38h-11l2.607-38zM47.6 81.185V64.296H56v16.89h-8.4zm33.601 0H58.8V62.89c0-.777-.627-1.407-1.4-1.407H46.2c-.773 0-1.4.63-1.4 1.407v18.296h-42V49.612L14 42.856v8.774c0 .777.626 1.407 1.4 1.408.317 0 .626-.11.875-.309L28 43.299v8.33c0 .778.626 1.408 1.4 1.41.318 0 .626-.11.875-.31L42 43.3v8.33c0 .777.626 1.408 1.4 1.408.317 0 .626-.11.875-.309L55.999 43.3v6.923c0 .777.628 1.407 1.4 1.407h23.8v29.555h.001zM47.384 3c.505.293.961.674 1.35 1.128.779 1.026 1.887 1.694 3.103 1.872 1.281-.176 2.45-.873 3.272-1.95.352-.398.745-.75 1.172-1.05.286.014 1.035.771 1.437 1.178.75 1 1.825 1.653 3.006 1.822 1.364-.187 2.61-.925 3.489-2.067.34-.345.855-.868.955-.932.745 0 .916.267 1.375.98.602 1.23 1.78 2.005 3.069 2.019C70.378 6 71 5.328 71 4.5S70.378 3 69.612 3c-.278 0-.332-.02-.783-.724C68.09.846 66.683-.029 65.168.001c-1.124.168-2.146.792-2.858 1.746-.46.47-1.234 1.254-1.527 1.26-.43-.28-.823-.623-1.17-1.017C58.778.892 57.586.18 56.281 0c-1.204.178-2.3.84-3.07 1.854-.39.452-.84.838-1.335 1.147-.463-.287-.884-.645-1.25-1.065C49.816.87 48.66.18 47.394 0c-.766-.003-1.39.666-1.393 1.495-.003.827.617 1.502 1.384 1.505z" transform="translate(-1179 -1235) translate(0 1090) translate(1103 145) translate(76)"/>
                            <path d="M15.667 65h-5.334C9.597 65 9 65.616 9 66.375v8.25c0 .76.597 1.375 1.333 1.375h5.334c.736 0 1.333-.615 1.333-1.375v-8.25c0-.76-.597-1.375-1.333-1.375zm-1.334 8.25h-2.666v-5.5h2.666v5.5zM26.667 65h-5.334c-.736 0-1.333.616-1.333 1.375v8.25c0 .76.597 1.375 1.333 1.375h5.334c.736 0 1.333-.615 1.333-1.375v-8.25c0-.76-.597-1.375-1.333-1.375zm-1.334 8.25h-2.666v-5.5h2.666v5.5zM37.667 65h-5.334c-.736 0-1.333.616-1.333 1.375v8.25c0 .76.597 1.375 1.333 1.375h5.334c.736 0 1.333-.615 1.333-1.375v-8.25c0-.76-.597-1.375-1.333-1.375zm-1.334 8.25h-2.666v-5.5h2.666v5.5z" transform="translate(-1179 -1235) translate(0 1090) translate(1103 145) translate(76)"/>
                        </g>
                    </g>
                </g>
            </g>
        </g>
    </g>
</svg>
