<svg xmlns="http://www.w3.org/2000/svg" width="84" height="82" viewBox="0 0 84 82">
    <g fill="none" fill-rule="evenodd">
        <g fill="#155394" fill-rule="nonzero">
            <g>
                <g>
                    <g>
                        <path d="M83.524 23.648L67.272 9.66c-.443-.382-1.082-.442-1.59-.15l-3.373 1.935-1.304-.747 1.996-1.145c.467-.269.734-.783.682-1.317-.05-.533-.41-.988-.92-1.164L42.449.076c-.404-.14-.836-.081-1.18.132C41.27.208.6 23.551.556 23.583c-.181.133-.331.313-.43.53-.091.196-.13.404-.126.607l.005 32.582c0 .49.262.941.688 1.186L41.31 81.816c.213.123.452.184.69.184.237 0 .475-.061.688-.184l40.623-23.31c.426-.245.689-.697.689-1.186V24.7c.005-.401-.168-.787-.476-1.052zM59.553 13.026L25.062 32.82c-.386.221-.64.615-.683 1.056-.042.441.133.875.47 1.165l5.326 4.585-15.591-8.948 6.657 2.293c.378.13.794.09 1.14-.108L58.25 12.278l1.304.748zM42.143 2.869l16.868 5.81-37.463 21.499-16.869-5.81L42.144 2.87zm-1.522 75.388L2.76 56.512l-.004-29.458 37.867 21.732-.003 29.47zm1.542-31.936l-14.047-12.09L66.21 12.367 80.257 24.46 42.163 46.321zM81.244 56.53L43.376 78.26l.004-29.473 37.864-21.73v29.473z" transform="translate(-517 -1248) translate(0 1090) translate(441 158) translate(76)"/>
                    </g>
                </g>
            </g>
        </g>
    </g>
</svg>
