<svg xmlns="http://www.w3.org/2000/svg" width="83" height="84" viewBox="0 0 83 84">
    <g fill="none" fill-rule="evenodd">
        <g fill="#155394" fill-rule="nonzero">
            <g>
                <g>
                    <g transform="translate(-849 -1242) translate(0 1090) translate(772 152) translate(77)">
                        <circle cx="77.5" cy="56.103" r="1.5"/>
                        <circle cx="57.5" cy="50.103" r="1.5"/>
                        <circle cx="11.5" cy="53.103" r="1.5"/>
                        <path d="M82.812 18.094c-.389-.674-1.25-.907-1.922-.519l-6.626 3.814c-.194.11-.358.266-.479.452l-5.184 7.964c-3.056 3.007-7.091 4.66-11.38 4.66H30.035c-1.614 0-2.599-1.198-2.83-2.312-.332-1.609.72-3.113 2.813-4.02.93-.403 1.99-.608 3.154-.608h8.201c2.792 0 5.064-2.274 5.064-5.069s-2.272-5.07-5.064-5.07h-7.653c-4.046 0-7.948 1.7-10.703 4.665L7.612 38.615c-1.03 1.108-2.738 1.29-3.81.406-.57-.471-.918-1.132-.977-1.862-.06-.729.17-1.435.65-1.986L20.02 16.148c2.36-2.714 5.777-4.271 9.374-4.271h23.445c2.507 0 5.034-.565 7.304-1.631 1.657-.778 6.812-5.725 8.352-7.223.558-.542.572-1.434.03-1.992-.541-.558-1.432-.573-1.99-.03-2.996 2.913-6.75 6.3-7.588 6.694-1.899.892-4.012 1.363-6.108 1.363H29.393c-4.41 0-8.602 1.91-11.497 5.24L1.353 33.321C.37 34.452-.105 35.897.019 37.39c.123 1.494.83 2.845 1.992 3.805.988.815 2.195 1.214 3.414 1.214.824 0 1.647-.196 2.415-.555.125.054.249.11.39.125l.224.024c.65.073 1.29.11 1.92.11 1.356 0 2.67-.176 3.972-.514 1.382 7.941 8.302 14.004 16.626 14.004 9.316 0 16.894-7.586 16.894-16.91 0-.47-.026-.94-.065-1.41h9.42c5.089 0 9.875-1.984 13.472-5.586.069-.069.131-.145.184-.227l5.083-7.807 6.332-3.646c.676-.386.908-1.248.52-1.923zm-52.777 19.19h9.252c.078.465.132.935.132 1.41 0 4.662-3.79 8.455-8.447 8.455-4.658 0-8.447-3.793-8.447-8.455 0-2.055.75-4.002 2.058-5.52.71 2.437 2.878 4.11 5.452 4.11zm11.339-17.078c1.24 0 2.248 1.01 2.248 2.25 0 1.242-1.008 2.252-2.248 2.252h-.966c-.046-.04-.076-.094-.129-.129-2.764-1.828-5.983-2.795-9.307-2.795-1.331 0-2.62.17-3.864.464 1.939-1.311 4.243-2.042 6.613-2.042h7.653zM14.08 38.74c-1.057.313-2.128.487-3.229.527l3.545-3.811c-.204 1.049-.318 2.13-.318 3.238l.002.046zm30.97-.046c0 7.77-6.316 14.091-14.078 14.091-7.763 0-14.079-6.32-14.079-14.091 0-7.77 6.316-14.092 14.079-14.092.586 0 1.165.055 1.74.126-1.374.051-2.658.317-3.812.818-2.195.952-3.44 2.314-4.062 3.731-.054.027-.113.034-.165.07-3.108 2.103-4.964 5.597-4.964 9.347 0 6.216 5.052 11.273 11.263 11.273 6.21 0 11.262-5.057 11.262-11.273 0-.473-.034-.943-.093-1.41h2.81c.047.47.099.939.099 1.41zM64.787 59.256c-.256-.406-.705-.653-1.187-.653H17.4c-.483 0-.931.247-1.187.653l-14 22.222c-.41.65-.21 1.507.445 1.914.657.406 1.52.208 1.929-.442l13.59-21.569h44.647l13.59 21.569c.265.422.721.653 1.188.653.253 0 .51-.068.74-.21.655-.408.855-1.264.445-1.915l-14-22.222z"/>
                        <path d="M52.522 67.603H27.478c-1.918 0-3.478 1.57-3.478 3.5s1.56 3.5 3.478 3.5h25.044c1.918 0 3.478-1.57 3.478-3.5s-1.56-3.5-3.478-3.5zm0 4.2H27.478c-.383 0-.695-.314-.695-.7 0-.386.312-.7.695-.7h25.044c.383 0 .695.314.695.7 0 .386-.312.7-.695.7zM72 37.603c-.737 0-1.333.597-1.333 1.333v1.334h-1.334c-.737 0-1.333.597-1.333 1.333s.596 1.333 1.333 1.333h1.334v1.334c0 .736.596 1.333 1.333 1.333s1.333-.597 1.333-1.333v-1.334h1.334c.737 0 1.333-.597 1.333-1.333s-.596-1.333-1.333-1.333h-1.334v-1.334c0-.736-.596-1.333-1.333-1.333zM5.333 13.936h1.334v1.334c0 .736.596 1.333 1.333 1.333s1.333-.597 1.333-1.333v-1.334h1.334c.737 0 1.333-.597 1.333-1.333s-.596-1.333-1.333-1.333H9.333V9.936c0-.736-.596-1.333-1.333-1.333S6.667 9.2 6.667 9.936v1.334H5.333c-.737 0-1.333.597-1.333 1.333s.596 1.333 1.333 1.333z"/>
                    </g>
                </g>
            </g>
        </g>
    </g>
</svg>
