<svg xmlns="http://www.w3.org/2000/svg" width="83" height="76" viewBox="0 0 83 76">
    <g fill="none" fill-rule="evenodd">
        <g fill="#155394" fill-rule="nonzero">
            <g>
                <g>
                    <g>
                        <path d="M82.534 54.064l-3.847-3.833c-.619-.616-1.617-.612-2.23.009-.613.62-.609 1.623.01 2.24l3.846 3.832c.308.307.71.46 1.11.46.406 0 .811-.157 1.12-.469.613-.62.609-1.624-.01-2.24zM74.561 46.21c-.585-.585-1.534-.585-2.12 0l-.003.003c-.585.586-.584 1.534.002 2.12.292.292.676.438 1.059.438.384 0 .769-.146 1.062-.44.585-.585.585-1.535 0-2.12z" transform="translate(-187 -1248) translate(0 1090) translate(110 158) translate(77)"/>
                        <path d="M60.535 53.914l15.684-15.647c2.375-2.37 2.375-6.226 0-8.596-.838-.836-1.861-1.375-2.939-1.622.37-.792.565-1.662.565-2.562 0-1.623-.634-3.15-1.784-4.298-.903-.9-2.039-1.482-3.272-1.691.694-2.11.204-4.527-1.475-6.202-.924-.92-2.072-1.482-3.27-1.687.2-.608.307-1.25.307-1.908 0-1.624-.634-3.15-1.785-4.298-1.15-1.148-2.68-1.78-4.308-1.78-1.033 0-2.027.255-2.91.736l-.155-.168C53.165 2.018 50.296.771 47.32.771H34.624c-.892 0-1.616.723-1.616 1.613V4.5c0 .846.143 1.67.418 2.445-.732-.303-1.523-.462-2.339-.462-1.627 0-3.157.632-4.308 1.78-1.68 1.676-2.17 4.094-1.474 6.205-1.2.205-2.349.766-3.273 1.688-1.15 1.148-1.784 2.674-1.784 4.298 0 .657.105 1.298.305 1.905-1.231.21-2.367.79-3.268 1.69-1.855 1.851-2.262 4.609-1.219 6.857-1.104.251-2.118.806-2.939 1.625-2.375 2.37-2.375 6.226 0 8.596l3.225 3.217L.474 60.185c-.632.63-.632 1.652 0 2.282.315.314.729.472 1.143.472.413 0 .827-.157 1.143-.472l16.032-15.995c.908.517 1.938.793 3.011.793 1.627 0 3.157-.632 4.308-1.78 1.25-1.247 1.841-2.906 1.776-4.543.082.003.164.006.246.006 1.56 0 3.12-.593 4.308-1.777 1.15-1.148 1.784-2.675 1.784-4.298 0-.082-.003-.164-.006-.245.08.003.162.005.243.005 1.56 0 3.12-.592 4.308-1.777 1.15-1.148 1.784-2.674 1.784-4.298 0-.082-.002-.163-.006-.245.081.003.162.006.244.006 1.56 0 3.12-.593 4.307-1.777 2.232-2.227 2.367-5.766.405-8.151L56.236 7.684c.54-.539 1.258-.835 2.021-.835.764 0 1.482.296 2.022.835.54.539.837 1.255.837 2.017s-.297 1.478-.837 2.017l-1.583 1.578-5.74 5.728c-.632.63-.632 1.651 0 2.281.315.315.729.473 1.142.473.414 0 .828-.158 1.144-.473l5.74-5.728c1.115-1.112 2.93-1.112 4.044 0 1.115 1.113 1.115 2.922 0 4.034l-1.583 1.579-4.158 4.149c-.632.63-.632 1.651 0 2.281.315.315.73.473 1.143.473.413 0 .827-.158 1.143-.473l4.159-4.149c.54-.539 1.258-.835 2.021-.835.764 0 1.482.296 2.022.835.54.539.837 1.255.837 2.017s-.297 1.478-.837 2.017L67.6 29.67l-1.987 1.983c-.631.63-.631 1.65 0 2.28.316.316.73.473 1.143.473.414 0 .828-.157 1.143-.472l1.989-1.984c1.114-1.11 2.927-1.11 4.041.002 1.115 1.112 1.115 2.921 0 4.033L58.246 51.633c-3.938 3.93-9.172 6.204-14.738 6.406-.41.014-.798.184-1.087.473L27.933 73.02c-.63.631-.629 1.652.004 2.281.315.314.728.47 1.141.47.415 0 .83-.158 1.145-.474l10.657-10.67c2.707 1.732 5.89 2.555 9.127 2.342l8.34 8.32c.316.316.73.473 1.144.473.414 0 .827-.157 1.143-.472.631-.63.631-1.651 0-2.281l-8.868-8.848c-.336-.335-.802-.506-1.275-.467l-.513.042c-2.366.193-4.704-.324-6.746-1.466l1.039-1.04c6.145-.378 11.898-2.961 16.264-7.316zm-36.71-10.71c-.54.54-1.258.836-2.022.836-.764 0-1.481-.297-2.021-.836l-4.369-4.358c-1.115-1.112-1.115-2.921 0-4.034.54-.539 1.258-.835 2.022-.835.763 0 1.481.296 2.021.835l4.369 4.358c1.114 1.113 1.114 2.922 0 4.034zm6.33-6.315c-1.115 1.112-2.93 1.112-4.044 0l-4.368-4.358-2.173-2.167c-1.114-1.112-1.114-2.922 0-4.034.54-.539 1.259-.835 2.022-.835.764 0 1.482.296 2.021.835l6.541 6.526c.54.539.838 1.255.838 2.016 0 .762-.298 1.479-.837 2.017zm6.329-6.314c-1.115 1.112-2.929 1.112-4.043 0l-8.123-8.104c-.54-.539-.838-1.255-.838-2.017s.298-1.478.838-2.017c.557-.556 1.29-.834 2.021-.834.732 0 1.463.278 2.02.833l3.703 3.694 4.422 4.411c.54.539.837 1.255.837 2.017s-.297 1.478-.837 2.017zm6.33-6.315c-1.115 1.112-2.929 1.112-4.044 0l-8.123-8.104-.002-.003-1.58-1.576c-1.115-1.112-1.115-2.921 0-4.033.557-.557 1.29-.835 2.022-.835.732 0 1.464.278 2.021.835l9.705 9.682c.54.539.838 1.255.838 2.017s-.297 1.478-.837 2.017zm.425-8.172l-4.44-4.43c.503.108 1.02.164 1.547.164h.036l4.437-.02c.893-.005 1.613-.73 1.609-1.621-.004-.888-.727-1.605-1.617-1.605h-.007l-4.437.02h-.02c-1.093 0-2.122-.423-2.897-1.193-.78-.774-1.21-1.805-1.21-2.904v-.502h11.08c2.08 0 4.087.872 5.505 2.392l.066.07-9.652 9.63z" transform="translate(-187 -1248) translate(0 1090) translate(110 158) translate(77)"/>
                    </g>
                </g>
            </g>
        </g>
    </g>
</svg>
